<svg width="85" height="75" viewBox="0 0 85 75" fill="none" xmlns="http://www.w3.org/2000/svg">
<rect y="28.5225" width="45.568" height="45.568" rx="4.54544" fill="#FF788E"/>
<path d="M73.7872 10.6018H60.3969V4.88164C60.4812 2.27142 58.4334 0.0869619 55.8232 0.00266296C55.6901 -0.00160277 55.5571 -0.000384174 55.4242 0.00652225H35.5988C32.9906 -0.129372 30.7661 1.87471 30.63 4.4827C30.6231 4.61554 30.6217 4.74859 30.6261 4.88164V10.5693H17.2358C12.0682 10.5693 6.02301 13.5106 6.02301 21.7821V57.1267C6.02301 65.3982 12.0682 68.3395 17.2358 68.3395H73.7872C78.9548 68.3395 85 65.3982 85 57.1267V21.8146C85 13.5431 78.9711 10.6018 73.7872 10.6018ZM33.8762 4.88164C33.8762 4.41038 33.8762 3.14285 35.615 3.14285H55.4242C57.163 3.14285 57.163 4.39413 57.163 4.88164V10.5693H33.8762V4.88164ZM81.7499 57.1267C81.7499 64.3094 76.1923 65.0894 73.7872 65.0894H17.2358C14.847 65.0894 9.27309 64.3094 9.27309 57.1267V21.8146C9.27309 14.6319 14.8307 13.8519 17.2358 13.8519H73.7872C76.176 13.8519 81.7499 14.6319 81.7499 21.8146V57.1267Z" fill="#210D36"/>
<path d="M59.3406 31.8246C59.3351 31.8246 59.3298 31.8246 59.3244 31.8246H52.7104V25.1944C52.7194 23.8572 51.6426 22.7658 50.3054 22.7568C50.2999 22.7568 50.2944 22.7568 50.2891 22.7568H40.7339C39.3967 22.7568 38.3126 23.8409 38.3126 25.1781V31.8083H31.6987C30.3615 31.7994 29.27 32.876 29.2611 34.2132C29.2611 34.2241 29.2611 34.2349 29.2611 34.2459V43.7849C29.2611 45.1221 30.3452 46.2062 31.6824 46.2062H38.3126V52.8201C38.3036 54.1573 39.3804 55.2487 40.7176 55.2576C40.7231 55.2576 40.7286 55.2576 40.7339 55.2576H50.2729C51.6101 55.2576 52.6942 54.1735 52.6942 52.8363V46.2062H59.3244C60.6616 46.2151 61.753 45.1383 61.7619 43.8011C61.7619 43.7956 61.7619 43.7901 61.7619 43.7849V34.2459C61.7619 32.9087 60.678 31.8246 59.3406 31.8246ZM58.5118 42.9561H51.0854C50.188 42.9561 49.4604 43.6837 49.4604 44.5811V52.0076H41.5627V44.5811C41.5627 43.6837 40.8351 42.9561 39.9376 42.9561H32.5112V35.0746H39.9376C40.8351 35.0746 41.5627 34.347 41.5627 33.4496V26.0069H49.4441V33.4334C49.4441 34.3308 50.1717 35.0584 51.0692 35.0584H58.5118V42.9561Z" fill="#210D36"/>
</svg>
