<svg width="83" height="86" viewBox="0 0 83 86" fill="none" xmlns="http://www.w3.org/2000/svg">
<rect x="3.91125" y="0.581116" width="45.3627" height="45.3627" rx="4.52496" fill="#70EDC9"/>
<path d="M66.6327 37.9357C66.3408 37.9357 66.0608 37.8198 65.8544 37.6133C65.648 37.4069 65.532 37.127 65.532 36.8351V19.7971H54.5256C54.2337 19.7971 53.9537 19.6811 53.7473 19.4747C53.5409 19.2683 53.4249 18.9883 53.4249 18.6964C53.4249 18.4045 53.5409 18.1245 53.7473 17.9181C53.9537 17.7117 54.2337 17.5958 54.5256 17.5958H66.6327C66.9246 17.5958 67.2046 17.7117 67.411 17.9181C67.6174 18.1245 67.7333 18.4045 67.7333 18.6964V36.8351C67.7333 37.127 67.6174 37.4069 67.411 37.6133C67.2046 37.8198 66.9246 37.9357 66.6327 37.9357Z" fill="#210D36"/>
<path d="M65.7211 48.7216C65.9632 48.9637 66.2916 49.0997 66.634 49.0997C66.9764 49.0997 67.3047 48.9637 67.5468 48.7216C67.7889 48.4795 67.9249 48.1512 67.9249 47.8088V44.5399C67.9249 44.1975 67.7889 43.8691 67.5468 43.627C67.3047 43.3849 66.9764 43.2489 66.634 43.2489C66.2916 43.2489 65.9632 43.3849 65.7211 43.627C65.479 43.8691 65.343 44.1975 65.343 44.5399V47.8088C65.343 48.1512 65.479 48.4795 65.7211 48.7216Z" fill="#210D36" stroke="#210D36" stroke-width="0.380597"/>
<path d="M16.0036 83.8249H66.6334C66.9757 83.8249 67.3041 83.6889 67.5462 83.4468C67.7883 83.2047 67.9243 82.8763 67.9243 82.5339V66.4205C67.9243 66.0781 67.7883 65.7497 67.5462 65.5076C67.3041 65.2655 66.9757 65.1295 66.6334 65.1295C66.291 65.1295 65.9626 65.2655 65.7205 65.5076C65.4784 65.7497 65.3424 66.0781 65.3424 66.4205V81.243H17.2945V19.9874H28.1107C28.4531 19.9874 28.7815 19.8513 29.0236 19.6092C29.2657 19.3671 29.4017 19.0388 29.4017 18.6964C29.4017 18.354 29.2657 18.0257 29.0236 17.7836C28.7815 17.5415 28.4531 17.4055 28.1107 17.4055H16.0036C15.6612 17.4055 15.3329 17.5415 15.0908 17.7836C14.8487 18.0257 14.7127 18.354 14.7127 18.6964V82.5339C14.7127 82.8763 14.8487 83.2047 15.0908 83.4468C15.3329 83.6889 15.6612 83.8249 16.0036 83.8249Z" fill="#210D36" stroke="#210D36" stroke-width="0.380597"/>
<path d="M65.7211 59.6289C65.9632 59.871 66.2916 60.007 66.634 60.007C66.9764 60.007 67.3047 59.871 67.5468 59.6289C67.7889 59.3868 67.9249 59.0584 67.9249 58.7161V55.5132C67.9249 55.1708 67.7889 54.8424 67.5468 54.6003C67.3047 54.3582 66.9764 54.2222 66.634 54.2222C66.2916 54.2222 65.9632 54.3582 65.7211 54.6003C65.479 54.8424 65.343 55.1708 65.343 55.5132V58.7161C65.343 59.0584 65.479 59.3868 65.7211 59.6289Z" fill="#210D36" stroke="#210D36" stroke-width="0.380597"/>
<path d="M28.111 23.2894H54.5265C54.8689 23.2894 55.1973 23.1534 55.4394 22.9113C55.6814 22.6692 55.8175 22.3409 55.8175 21.9985V15.3946C55.8175 15.0522 55.6814 14.7239 55.4394 14.4818C55.1973 14.2397 54.8689 14.1037 54.5265 14.1037H49.7924C49.594 12.0284 48.6404 10.0956 47.1094 8.67457C45.5351 7.21346 43.4666 6.4015 41.3188 6.4015C39.1709 6.4015 37.1024 7.21346 35.5281 8.67457C33.9971 10.0956 33.0435 12.0284 32.8451 14.1037H28.111C27.7686 14.1037 27.4403 14.2397 27.1982 14.4818C26.9561 14.7239 26.82 15.0522 26.82 15.3946V21.9985C26.82 22.3409 26.9561 22.6692 27.1982 22.9113C27.4403 23.1534 27.7686 23.2894 28.111 23.2894ZM53.2356 16.6856V20.7076H29.4019V16.6856H34.0985C34.4409 16.6856 34.7692 16.5496 35.0113 16.3075C35.2534 16.0654 35.3895 15.737 35.3895 15.3946V14.9103C35.3895 13.3378 36.0141 11.8296 37.1261 10.7177C38.2381 9.60573 39.7462 8.98104 41.3188 8.98104C42.8913 8.98104 44.3994 9.60573 45.5114 10.7177C46.6234 11.8296 47.2481 13.3378 47.2481 14.9103V15.3946C47.2481 15.737 47.3841 16.0654 47.6262 16.3075C47.8683 16.5496 48.1966 16.6856 48.539 16.6856H53.2356Z" fill="#210D36" stroke="#210D36" stroke-width="0.380597"/>
<path d="M37.9057 46.3425H37.9048C37.6492 46.3411 37.3998 46.264 37.1882 46.1208C36.9765 45.9776 36.8121 45.7749 36.7158 45.5383C36.7158 45.5382 36.7158 45.5382 36.7158 45.5382L33.9011 38.6301L32.4778 41.2129L32.4778 41.213C32.3662 41.4153 32.2025 41.5839 32.0035 41.7013C31.8047 41.8186 31.5779 41.8805 31.347 41.8804C31.347 41.8804 31.3469 41.8804 31.3469 41.8804H23.7074C23.365 41.8804 23.0367 41.7444 22.7946 41.5023C22.5525 41.2602 22.4165 40.9319 22.4165 40.5895C22.4165 40.2471 22.5525 39.9188 22.7946 39.6767C23.0367 39.4346 23.365 39.2985 23.7074 39.2985H30.5852L32.9457 35.0132L32.946 35.0127C33.064 34.7999 33.2397 34.6248 33.4529 34.5075C33.666 34.3903 33.908 34.3357 34.1509 34.35C34.3938 34.3643 34.6277 34.4469 34.8256 34.5884C35.0236 34.7298 35.1775 34.9244 35.2697 35.1495L35.2699 35.1499L37.9242 41.6757L42.8572 29.9594C42.9619 29.7104 43.1422 29.5005 43.3725 29.3594C43.6028 29.2182 43.8716 29.1529 44.1411 29.1726C44.4105 29.1922 44.6669 29.2959 44.8743 29.469C45.0817 29.6422 45.2295 29.876 45.297 30.1375L45.2971 30.1376L48.1476 41.2072L49.6972 39.6729L37.9057 46.3425ZM37.9057 46.3425C38.1598 46.3425 38.4083 46.2676 38.6201 46.1271C38.8318 45.9865 38.9973 45.7866 39.0959 45.5524L39.0959 45.5524L43.7518 34.4894L46.2085 44.028L46.2086 44.0281C46.2652 44.248 46.3789 44.4491 46.5382 44.611C46.6974 44.773 46.8966 44.89 47.1155 44.9504C47.3345 45.0108 47.5655 45.0123 47.7852 44.9549C48.0049 44.8974 48.2056 44.783 48.367 44.6232L51.1367 41.8804H58.9281C59.2705 41.8804 59.5988 41.7444 59.8409 41.5023C60.083 41.2602 60.219 40.9319 60.219 40.5895C60.219 40.2471 60.083 39.9188 59.8409 39.6767C59.5988 39.4346 59.2705 39.2985 58.9281 39.2985L50.6017 39.2985L50.6009 39.2985M37.9057 46.3425L50.6009 39.2985M50.6009 39.2985C50.2623 39.3 49.9378 39.4344 49.6974 39.6728L50.6009 39.2985Z" fill="#210D36" stroke="#210D36" stroke-width="0.380597"/>
<path d="M23.1577 54.842H59.4791C59.8214 54.842 60.1498 54.706 60.3919 54.4639C60.634 54.2218 60.77 53.8934 60.77 53.551C60.77 53.2086 60.634 52.8803 60.3919 52.6382C60.1498 52.3961 59.8214 52.2601 59.4791 52.2601H23.1577C22.8153 52.2601 22.487 52.3961 22.2449 52.6382C22.0028 52.8803 21.8668 53.2086 21.8668 53.551C21.8668 53.8934 22.0028 54.2218 22.2449 54.4639C22.487 54.706 22.8153 54.842 23.1577 54.842Z" fill="#210D36" stroke="#210D36" stroke-width="0.380597"/>
<path d="M23.1577 64.611H59.4791C59.8214 64.611 60.1498 64.4749 60.3919 64.2328C60.634 63.9907 60.77 63.6624 60.77 63.32C60.77 62.9776 60.634 62.6493 60.3919 62.4072C60.1498 62.1651 59.8214 62.0291 59.4791 62.0291H23.1577C22.8153 62.0291 22.487 62.1651 22.2449 62.4072C22.0028 62.6493 21.8668 62.9776 21.8668 63.32C21.8668 63.6624 22.0028 63.9907 22.2449 64.2328C22.487 64.4749 22.8153 64.611 23.1577 64.611Z" fill="#210D36" stroke="#210D36" stroke-width="0.380597"/>
<path d="M23.1577 74.3788H59.4791C59.8214 74.3788 60.1498 74.2428 60.3919 74.0007C60.634 73.7586 60.77 73.4303 60.77 73.0879C60.77 72.7455 60.634 72.4172 60.3919 72.1751C60.1498 71.933 59.8214 71.7969 59.4791 71.7969H23.1577C22.8153 71.7969 22.487 71.933 22.2449 72.1751C22.0028 72.4172 21.8668 72.7455 21.8668 73.0879C21.8668 73.4303 22.0028 73.7586 22.2449 74.0007C22.487 74.2428 22.8153 74.3788 23.1577 74.3788Z" fill="#210D36" stroke="#210D36" stroke-width="0.380597"/>
</svg>
