<svg width="88" height="88" viewBox="0 0 88 88" fill="none" xmlns="http://www.w3.org/2000/svg">
<rect x="3.86523" y="0.820435" width="45.3628" height="45.3628" rx="4.57981" fill="#FCDAC9"/>
<path d="M79.2291 64.17C80.5593 62.8731 81.3876 61.0637 81.3876 59.0635V51.2067C81.3876 46.9333 79.7172 42.9219 76.6842 39.9112C73.6513 36.9008 69.6297 35.2607 65.3522 35.2922C56.6429 35.3568 49.5575 42.5761 49.5575 51.3853V59.0635C49.5575 61.0628 50.3851 62.8715 51.7142 64.1683C51.1945 64.4118 50.6898 64.6882 50.2012 64.9935C48.8948 63.0398 46.6694 61.7503 44.1478 61.7503C42.254 61.7503 40.5275 62.4779 39.2314 63.6677C37.003 62.4107 34.4994 61.7503 31.9059 61.7503H29.4236V60.3997C31.7811 58.6739 33.3162 55.888 33.3162 52.749V47.0083C35.8097 45.293 37.4484 42.4209 37.4484 39.1724C37.4484 33.9308 33.1842 29.6665 27.9425 29.6665C25.0132 29.6665 22.274 31.0194 20.487 33.2768C19.7216 33.0353 18.9194 32.9106 18.1123 32.9106C13.7651 32.9106 10.2286 36.4473 10.2286 40.7945C10.2286 43.7845 11.9017 46.391 14.3608 47.7271V52.7489C14.3608 55.8878 15.8959 58.6738 18.2534 60.3996V61.7503H15.7711C7.52776 61.7503 0.821289 68.4568 0.821289 76.7001V85.783C0.821289 86.7175 1.579 87.4754 2.51373 87.4754H11.6529C12.5875 87.4754 13.3454 86.7175 13.3454 85.783C13.3454 84.8484 12.5875 84.0905 11.6529 84.0905H4.20617V76.7001C4.20617 70.3232 9.39419 65.1352 15.7711 65.1352H18.2534V65.2904C18.2534 68.3699 20.7589 70.8754 23.8385 70.8754C26.9181 70.8754 29.4236 68.3699 29.4236 65.2904V65.1352H31.9059C33.819 65.1352 35.6685 65.5993 37.33 66.4844C37.0335 67.2766 36.8703 68.1333 36.8703 69.0278C36.8703 70.6344 37.3946 72.1204 38.2798 73.3256C34.9849 74.4006 32.5969 77.5008 32.5969 81.1499V84.0905H26.8849C25.9502 84.0905 25.1925 84.8484 25.1925 85.783C25.1925 86.7175 25.9502 87.4754 26.8849 87.4754H85.7819C86.7165 87.4754 87.4743 86.7175 87.4743 85.783V77.1327C87.4743 71.4077 84.0959 66.4594 79.2291 64.17ZM18.1123 36.2955C18.8744 36.2955 19.6277 36.4899 20.291 36.858C21.1069 37.3111 22.1364 37.0175 22.591 36.2015C23.6728 34.2583 25.7234 33.0514 27.9425 33.0514C31.3176 33.0514 34.0636 35.7974 34.0636 39.1724C34.0636 42.5475 31.3176 45.2935 27.9425 45.2935C26.4185 45.2935 24.9581 44.7299 23.8305 43.7065C23.5064 43.4124 23.0994 43.2673 22.6936 43.2673C22.2336 43.2673 21.7751 43.4538 21.4413 43.8207C20.5899 44.7565 19.3764 45.2933 18.1123 45.2933C15.6317 45.2933 13.6134 43.2751 13.6134 40.7943C13.6134 38.3135 15.6317 36.2955 18.1123 36.2955ZM17.7457 48.6691C17.8672 48.6747 17.9894 48.6784 18.1123 48.6784C19.798 48.6784 21.4319 48.1339 22.774 47.1515C24.3036 48.1437 26.093 48.6784 27.9425 48.6784C28.6246 48.6784 29.2895 48.6046 29.9313 48.4675V52.749C29.9313 56.1085 27.1982 58.8418 23.8385 58.8418C20.4788 58.8418 17.7457 56.1085 17.7457 52.749V48.6691ZM26.0387 65.2904C26.0387 66.5035 25.0516 67.4906 23.8385 67.4906C22.6254 67.4906 21.6383 66.5035 21.6383 65.2904V61.9661C22.3449 62.1348 23.081 62.2267 23.8385 62.2267C24.596 62.2267 25.3321 62.1348 26.0387 61.9661V65.2904ZM56.693 62.8142C54.6249 62.8142 52.9424 61.1317 52.9424 59.0635V51.3853C52.9424 44.4287 58.5207 38.7278 65.3775 38.6771C68.7425 38.6459 71.9118 39.9434 74.2997 42.3134C76.6877 44.6839 78.0029 47.8421 78.0029 51.2067V59.0635C78.0029 61.1317 76.3205 62.8142 74.2523 62.8142H70.8884V61.6455C73.1448 59.9798 74.6118 57.3032 74.6118 54.2897V50.9556C74.6118 48.8212 72.8753 47.0848 70.741 47.0848H60.2042C58.0698 47.0848 56.3334 48.8212 56.3334 50.9556V54.2897C56.3334 57.3032 57.8002 59.9798 60.0568 61.6455V62.8142H56.693ZM65.4726 60.044C62.2996 60.044 59.7183 57.4627 59.7183 54.2897V50.9556C59.7183 50.6877 59.9363 50.4697 60.2042 50.4697H70.741C71.0089 50.4697 71.2269 50.6877 71.2269 50.9556V54.2897C71.2269 57.4627 68.6456 60.044 65.4726 60.044ZM63.4417 63.1985C64.0953 63.3475 64.7744 63.4289 65.4726 63.4289C66.1707 63.4289 66.8499 63.3476 67.5035 63.1985V65.7C67.5035 66.8198 66.5925 67.7309 65.4726 67.7309C64.3527 67.7309 63.4417 66.8198 63.4417 65.7V63.1985ZM44.1478 65.1352C46.2943 65.1352 48.0404 66.8813 48.0404 69.0278C48.0404 71.1743 46.2943 72.9204 44.1478 72.9204C42.0013 72.9204 40.2552 71.1743 40.2552 69.0278C40.2552 66.8813 42.0013 65.1352 44.1478 65.1352ZM35.9818 81.1499C35.9818 78.4786 38.155 76.3053 40.8264 76.3053H47.4692C50.1406 76.3053 52.3138 78.4786 52.3138 81.1499V84.0905H35.9818V81.1499ZM84.0894 84.0905H55.6987V81.1499C55.6987 77.501 53.3105 74.4008 50.0158 73.3256C50.901 72.1204 51.4253 70.6344 51.4253 69.0278C51.4253 68.7722 51.4118 68.5196 51.3859 68.2706C53.2413 66.9293 55.4816 66.1991 57.7894 66.1991H60.0806C60.3335 68.9522 62.6547 71.1158 65.4726 71.1158C68.2905 71.1158 70.6117 68.9522 70.8645 66.1991H73.1558C79.1846 66.1991 84.0894 71.1038 84.0894 77.1327V84.0905Z" fill="#210D36"/>
<path d="M72.9192 24.234C75.9055 24.234 78.335 21.8045 78.335 18.8182C78.335 15.8318 75.9055 13.4023 72.9192 13.4023C69.9329 13.4023 67.5034 15.8318 67.5034 18.8182C67.5034 21.8045 69.9329 24.234 72.9192 24.234ZM72.9192 16.7872C74.0391 16.7872 74.9502 17.6983 74.9502 18.8182C74.9502 19.938 74.0391 20.8491 72.9192 20.8491C71.7993 20.8491 70.8883 19.938 70.8883 18.8182C70.8883 17.6983 71.7993 16.7872 72.9192 16.7872Z" fill="#210D36"/>
<path d="M19.2696 84.0903C18.8245 84.0903 18.3878 84.2713 18.073 84.5862C17.7582 84.901 17.5771 85.3377 17.5771 85.7828C17.5771 86.2279 17.7581 86.6645 18.073 86.9792C18.3878 87.294 18.8245 87.4752 19.2696 87.4752C19.7147 87.4752 20.1514 87.2941 20.466 86.9792C20.7809 86.6645 20.962 86.2279 20.962 85.7828C20.962 85.3377 20.7809 84.901 20.466 84.5862C20.1514 84.2713 19.7147 84.0903 19.2696 84.0903Z" fill="#210D36"/>
<path d="M44.1479 11.6529C41.1616 11.6529 38.7321 9.22342 38.7321 6.2371C38.7321 3.25079 41.1616 0.821289 44.1479 0.821289C47.1342 0.821289 49.5637 3.25096 49.5637 6.2371C49.5637 9.22325 47.1342 11.6529 44.1479 11.6529ZM44.1479 4.20617C43.028 4.20617 42.1169 5.11722 42.1169 6.2371C42.1169 7.35699 43.028 8.26803 44.1479 8.26803C45.2678 8.26803 46.1788 7.35699 46.1788 6.2371C46.1788 5.11722 45.2678 4.20617 44.1479 4.20617Z" fill="#210D36"/>
<path d="M15.3758 22.1471C12.3895 22.1471 9.95996 19.7176 9.95996 16.7312C9.95996 13.7449 12.3895 11.3154 15.3758 11.3154C18.3621 11.3154 20.7916 13.7449 20.7916 16.7312C20.7916 19.7176 18.3621 22.1471 15.3758 22.1471ZM15.3758 14.7003C14.2559 14.7003 13.3448 15.6114 13.3448 16.7312C13.3448 17.8511 14.2559 18.7622 15.3758 18.7622C16.4957 18.7622 17.4067 17.8511 17.4067 16.7312C17.4067 15.6114 16.4957 14.7003 15.3758 14.7003Z" fill="#210D36"/>
</svg>
