<svg width="116" height="75" viewBox="0 0 116 75" fill="none" xmlns="http://www.w3.org/2000/svg">
<rect x="0.452148" y="4.2959" width="45.3627" height="45.3627" rx="5.94455" fill="#9CDFF9"/>
<path d="M114.141 53.4873C109.24 53.4873 106.759 54.4473 104.359 55.3756C102.147 56.2315 100.057 57.0401 95.7763 57.0401C91.4953 57.0401 89.4058 56.2317 87.1934 55.3756C84.7941 54.4473 82.313 53.4873 77.4112 53.4873C72.5126 53.4873 70.033 54.4475 67.635 55.3759C65.4244 56.2317 63.3364 57.0401 59.0589 57.0401C54.7797 57.0401 52.691 56.2317 50.4798 55.3759C48.0811 54.4473 45.6009 53.4873 40.7009 53.4873C35.8025 53.4873 33.3229 54.4475 30.9249 55.3759C28.7143 56.2317 26.6266 57.0401 22.3491 57.0401C18.0729 57.0401 15.9856 56.2317 13.7757 55.3759C11.3784 54.4473 8.89945 53.4873 4.00191 53.4873C3.084 53.4873 2.33984 54.2315 2.33984 55.1494C2.33984 56.0673 3.084 56.8114 4.00191 56.8114C8.27806 56.8114 10.3652 57.6199 12.5753 58.4757C14.9726 59.4042 17.4515 60.3642 22.3491 60.3642C27.2475 60.3642 29.7271 59.404 32.1251 58.4757C34.3356 57.6199 36.4234 56.8114 40.7009 56.8114C44.9799 56.8114 47.0686 57.6199 49.2798 58.4757C51.6785 59.4042 54.159 60.3642 59.0589 60.3642C63.9576 60.3642 66.4372 59.404 68.8352 58.4757C71.0457 57.6199 73.1337 56.8114 77.4112 56.8114C81.692 56.8114 83.7818 57.6199 85.9939 58.4759C88.3934 59.4042 90.8746 60.3642 95.7763 60.3642C100.678 60.3642 103.159 59.4042 105.559 58.4759C107.771 57.6201 109.86 56.8114 114.141 56.8114C115.059 56.8114 115.803 56.0673 115.803 55.1494C115.803 54.2315 115.059 53.4873 114.141 53.4873Z" fill="#210D36"/>
<path d="M106.81 63.3176C106.479 62.461 105.517 62.0344 104.661 62.3646L104.358 62.4816C103.357 62.8688 102.412 63.2345 101.288 63.5265C100.399 63.7575 99.866 64.6647 100.097 65.5531C100.291 66.3015 100.965 66.7977 101.704 66.7977C101.843 66.7977 101.983 66.7802 102.123 66.7438C103.433 66.4034 104.513 65.9857 105.558 65.5815L105.857 65.466C106.713 65.1359 107.14 64.1738 106.81 63.3176Z" fill="#210D36"/>
<path d="M94.6596 64.1268C91.1137 63.9989 89.2092 63.2621 87.1927 62.4818C84.7932 61.5535 82.312 60.5935 77.4105 60.5935C72.5119 60.5935 70.0323 61.5537 67.6343 62.482C65.4237 63.3379 63.3357 64.1463 59.0583 64.1463C54.779 64.1463 52.6906 63.3379 50.4791 62.4818C48.0804 61.5535 45.6002 60.5933 40.7002 60.5933C35.8018 60.5933 33.3222 61.5535 30.9242 62.4818C28.9127 63.2608 27.0126 63.9963 23.481 64.1259C22.5636 64.1596 21.8473 64.9306 21.881 65.8478C21.9147 66.7653 22.6859 67.4795 23.6029 67.4478C27.6925 67.2978 29.9458 66.4253 32.1246 65.5817C34.3352 64.7258 36.423 63.9174 40.7004 63.9174C44.9795 63.9174 47.0681 64.7258 49.2793 65.5819C51.678 66.5102 54.1585 67.4704 59.0585 67.4704C63.9571 67.4704 66.4367 66.5102 68.8347 65.5819C71.0453 64.726 73.1333 63.9176 77.4107 63.9176C81.6915 63.9176 83.7813 64.726 85.9934 65.5821C88.1774 66.4271 90.4355 67.3009 94.54 67.4489C95.4514 67.4815 96.2277 66.7653 96.2607 65.8478C96.2938 64.9304 95.5769 64.1598 94.6596 64.1268Z" fill="#210D36"/>
<path d="M77.4104 67.6987C72.5118 67.6987 70.0322 68.659 67.6342 69.5873C65.4237 70.4431 63.3357 71.2516 59.0582 71.2516C54.7789 71.2516 52.6905 70.4431 50.4791 69.5873C48.0804 68.6587 45.6001 67.6987 40.7001 67.6987C39.7822 67.6987 39.0381 68.4429 39.0381 69.3608C39.0381 70.2787 39.7822 71.0229 40.7001 71.0229C44.9792 71.0229 47.0678 71.8313 49.2793 72.6871C51.678 73.6157 54.1582 74.5757 59.0582 74.5757C63.9568 74.5757 66.4364 73.6155 68.8344 72.6871C71.045 71.8313 73.133 71.0229 77.4104 71.0229C78.3283 71.0229 79.0725 70.2787 79.0725 69.3608C79.0725 68.4429 78.3283 67.6987 77.4104 67.6987Z" fill="#210D36"/>
<path d="M16.8571 63.5303C15.7258 63.2372 14.7775 62.8697 13.7737 62.4808C12.9178 62.1493 11.9549 62.5743 11.6234 63.4302C11.2919 64.2863 11.7169 65.2489 12.5728 65.5804C13.621 65.9864 14.7049 66.4064 16.023 66.7481C16.1628 66.7844 16.3031 66.8017 16.4412 66.8017C17.1802 66.8017 17.8548 66.3049 18.0489 65.5563C18.2794 64.6676 17.7458 63.7608 16.8571 63.5303Z" fill="#210D36"/>
<path d="M80.8512 31.1107C75.8856 23.9875 67.7438 19.7349 59.0713 19.7349C44.4414 19.7349 32.5391 31.637 32.5391 46.2671C32.5388 46.8985 32.5612 47.5356 32.6055 48.1608C32.6674 49.0366 33.3971 49.7058 34.2618 49.7058C34.3013 49.7058 34.3407 49.7045 34.3806 49.7016C35.2963 49.6369 35.9862 48.8422 35.9215 47.9265C35.8827 47.3787 35.8632 46.8205 35.8632 46.2671C35.8632 33.4701 46.2741 23.059 59.0713 23.059C66.6572 23.059 73.7799 26.7796 78.1241 33.0116C78.6491 33.7644 79.6849 33.9493 80.4381 33.4247C81.1912 32.8997 81.376 31.8637 80.8512 31.1107Z" fill="#210D36"/>
<path d="M25.3188 44.605H14.6601C13.7422 44.605 12.998 45.3491 12.998 46.267C12.998 47.1849 13.7422 47.9291 14.6601 47.9291H25.3188C26.2367 47.9291 26.9809 47.1849 26.9809 46.267C26.9809 45.3491 26.2367 44.605 25.3188 44.605Z" fill="#210D36"/>
<path d="M59.0715 0.194336C58.1536 0.194336 57.4094 0.938497 57.4094 1.8564V12.5151C57.4094 13.4332 58.1536 14.1772 59.0715 14.1772C59.9894 14.1772 60.7335 13.433 60.7335 12.5151V1.8564C60.7335 0.938497 59.9894 0.194336 59.0715 0.194336Z" fill="#210D36"/>
<path d="M91.6495 13.689C91.0004 13.0399 89.948 13.0399 89.2991 13.689L81.7622 21.2259C81.1131 21.875 81.1131 22.9274 81.7622 23.5762C82.0866 23.9007 82.5119 24.0631 82.9374 24.0631C83.3627 24.0631 83.7881 23.9009 84.1126 23.5762L91.6495 16.0393C92.2986 15.3903 92.2986 14.3378 91.6495 13.689Z" fill="#210D36"/>
<path d="M47.6904 14.4485L46.3308 11.166C45.9796 10.3179 45.0074 9.91547 44.1593 10.2665C43.3112 10.6177 42.9085 11.5902 43.2598 12.438L44.6193 15.7205C44.8844 16.3605 45.5033 16.747 46.1555 16.747C46.3676 16.747 46.583 16.7062 46.7909 16.62C47.639 16.2688 48.0416 15.2963 47.6904 14.4485Z" fill="#210D36"/>
<path d="M95.0723 31.3555C94.721 30.5077 93.7488 30.1048 92.9007 30.456L89.6182 31.8156C88.7702 32.1666 88.3675 33.139 88.7187 33.9871C88.9838 34.6271 89.6027 35.0136 90.2549 35.0136C90.467 35.0136 90.6824 34.9728 90.8903 34.8866L94.1727 33.5271C95.0208 33.1758 95.4235 32.2034 95.0723 31.3555Z" fill="#210D36"/>
<path d="M73.9832 10.2666C73.1354 9.91534 72.163 10.318 71.8117 11.1661L70.4521 14.4486C70.1009 15.2964 70.5036 16.2686 71.3517 16.6201C71.5595 16.7063 71.7751 16.7471 71.987 16.7471C72.6392 16.7471 73.2581 16.3606 73.5232 15.7206L74.8828 12.4381C75.234 11.59 74.8313 10.6178 73.9832 10.2666Z" fill="#210D36"/>
<path d="M28.5243 31.8156L25.2418 30.456C24.3935 30.1048 23.4216 30.5075 23.0703 31.3556C22.7191 32.2036 23.1217 33.1758 23.9698 33.5271L27.2523 34.8867C27.4604 34.9729 27.6758 35.0136 27.8876 35.0136C28.5398 35.0136 29.1588 34.6272 29.4238 33.9872C29.7751 33.1391 29.3724 32.1669 28.5243 31.8156Z" fill="#210D36"/>
<path d="M28.2373 10.853C25.7823 10.853 23.4117 11.6712 21.4585 13.1757C20.5687 12.8971 19.6517 12.7562 18.7207 12.7562C13.6062 12.7562 9.44531 16.9171 9.44531 22.0316C9.44531 22.9495 10.1895 23.6937 11.1074 23.6937H37.754C38.6719 23.6937 39.4161 22.9495 39.4161 22.0316C39.4161 15.8678 34.4013 10.853 28.2373 10.853ZM13.0057 20.3693C13.7266 17.8942 16.0158 16.0803 18.7207 16.0803C19.5396 16.0803 20.3453 16.2527 21.1156 16.5929C21.7226 16.8608 22.4307 16.7423 22.9171 16.2911C24.3873 14.9277 26.2769 14.1769 28.2375 14.1769C31.9984 14.1769 35.1503 16.834 35.9153 20.3693H13.0057Z" fill="#210D36"/>
<path d="M86.9873 38.7684C86.0563 38.7684 85.1393 38.9091 84.2496 39.1879C82.2963 37.6834 79.9256 36.8652 77.4708 36.8652C71.3068 36.8652 66.292 41.88 66.292 48.0438C66.292 48.9617 67.0362 49.7059 67.9541 49.7059H94.6007C95.5186 49.7059 96.2627 48.9617 96.2627 48.0438C96.2627 42.9293 92.1018 38.7684 86.9873 38.7684ZM69.793 46.3818C70.5577 42.8464 73.7099 40.1894 77.4708 40.1894C79.4314 40.1894 81.3208 40.9402 82.7912 42.3035C83.2778 42.7545 83.9854 42.8728 84.5924 42.6051C85.3627 42.2649 86.1685 42.0925 86.9873 42.0925C89.6923 42.0925 91.9815 43.9064 92.7026 46.3818H69.793Z" fill="#210D36"/>
</svg>
