<svg width="69" height="80" viewBox="0 0 69 80" fill="none" xmlns="http://www.w3.org/2000/svg">
<rect x="0.149414" y="0.671753" width="45.3627" height="45.3627" rx="5.94455" fill="#FCDAC9"/>
<path d="M41.9078 71.4453H35.9747C35.1873 71.4453 34.549 72.0838 34.549 72.8711C34.549 73.6584 35.1873 74.2969 35.9747 74.2969H41.9078C42.6953 74.2969 43.3336 73.6584 43.3336 72.8711C43.3336 72.0838 42.6953 71.4453 41.9078 71.4453Z" fill="#210D36"/>
<path d="M67.457 18.4064H58.9023V15.3095C60.5618 14.7209 61.7539 13.1361 61.7539 11.2773C61.7539 8.91882 59.8351 7 57.4766 7H20.4062C18.0477 7 16.1289 8.91882 16.1289 11.2775C16.1289 13.1361 17.321 14.7209 18.9805 15.3095V18.4064H10.4258C9.63832 18.4064 9 19.0449 9 19.8322V29.8126C9 36.102 14.1168 41.2189 20.4062 41.2189H21.6117C21.8858 41.6965 22.1786 42.1656 22.4939 42.6231C24.5121 45.5526 27.2359 47.8687 30.4169 49.3802C30.3977 49.5445 30.3867 49.7113 30.3867 49.8807C30.3867 51.8783 31.7636 53.5602 33.618 54.0281C31.9047 59.7362 28.8603 65.7422 25.2539 65.7422H21.832C21.113 65.7422 20.5065 66.2776 20.4172 66.9912L18.9914 78.3974C18.9407 78.8032 19.0667 79.2113 19.3373 79.5178C19.608 79.8243 19.9973 80 20.4062 80H57.4766C57.8855 80 58.2749 79.8245 58.5455 79.5178C58.8161 79.2113 58.9421 78.8031 58.8914 78.3974L57.4656 66.9912C57.3765 66.2776 56.7699 65.7422 56.0508 65.7422H52.6289C50.4462 65.7422 48.6019 63.4502 47.4392 61.5273C45.945 59.0564 44.9015 56.1458 44.2651 54.0278C46.1195 53.5599 47.4961 51.878 47.4961 49.8805C47.4961 49.7111 47.4851 49.5445 47.4659 49.3801C50.6475 47.8685 53.3716 45.5517 55.3899 42.6217C55.7047 42.1646 55.9973 41.6961 56.2711 41.2189H57.4766C63.766 41.2189 68.8828 36.102 68.8828 29.8126V19.8322C68.8828 19.0449 68.2445 18.4064 67.457 18.4064ZM11.8516 29.8126V21.258H18.9805V31.3454C18.9805 33.7663 19.4196 36.1351 20.2632 38.3638C15.6121 38.2868 11.8516 34.4818 11.8516 29.8126ZM55.8614 77.1484H22.0214L23.0907 68.5938H54.7921L55.8614 77.1484ZM47.0082 65.7422H30.8748C31.5675 64.9828 32.2357 64.0733 32.8773 63.0137C34.6997 60.0038 35.8961 56.4578 36.5504 54.1579H41.3326C41.9874 56.4602 43.1814 59.9973 44.9991 63.003C45.6427 64.0672 46.313 64.9803 47.0082 65.7422ZM43.2187 51.3063H34.6641C33.8779 51.3063 33.2383 50.6667 33.2383 49.8805C33.2383 49.0943 33.8779 48.4547 34.6641 48.4547H43.2187C44.0049 48.4547 44.6445 49.0943 44.6445 49.8805C44.6445 50.6667 44.0049 51.3063 43.2187 51.3063ZM46.2055 46.8226C45.434 46.069 44.3799 45.6032 43.2187 45.6032H34.6641C33.5029 45.6032 32.449 46.069 31.6773 46.8226C25.6662 43.9922 21.832 38.0194 21.832 31.3454V15.5547H32.525C33.3124 15.5547 33.9507 14.9162 33.9507 14.1289C33.9507 13.3416 33.3124 12.7031 32.525 12.7031H20.4062C19.6201 12.7031 18.9805 12.0635 18.9805 11.2773C18.9805 10.4912 19.6201 9.85156 20.4062 9.85156H57.4766C58.2627 9.85156 58.9023 10.4912 58.9023 11.2775C58.9023 12.0637 58.2627 12.7031 57.4766 12.7031H45.357C44.5695 12.7031 43.9312 13.3416 43.9312 14.1289C43.9312 14.9162 44.5695 15.5547 45.357 15.5547H56.0508V31.3454C56.0508 38.0192 52.2164 43.9922 46.2055 46.8226ZM66.0312 29.8126C66.0312 34.4818 62.2707 38.2868 57.6196 38.3638C58.4632 36.1353 58.9023 33.7663 58.9023 31.3454V21.258H66.0312V29.8126Z" fill="#210D36"/>
<path d="M46.2259 25.5917L43.0281 25.0252L41.4401 22.1039C41.4401 22.1038 41.44 22.1035 41.4398 22.1034C41.1733 21.6136 40.772 21.216 40.2794 20.9533C39.6085 20.5956 38.8386 20.5206 38.1115 20.7417C37.3842 20.9632 36.7866 21.4545 36.4286 22.1258L34.9019 24.9917L31.6949 25.5878C31.1203 25.6801 30.5949 25.9421 30.1739 26.3469C29.6256 26.8743 29.3157 27.5835 29.3008 28.3442C29.286 29.1047 29.5683 29.8255 30.0969 30.3746L32.3524 32.7142L31.9387 35.8691C31.8276 36.4712 31.9105 37.0793 32.1795 37.6318C32.5128 38.3165 33.0929 38.8302 33.8127 39.0784C34.1174 39.1835 34.4318 39.2358 34.7449 39.2358C35.1714 39.2358 35.5957 39.1389 35.9903 38.9468L38.9082 37.5265L41.9113 38.9572C42.4126 39.1965 42.9718 39.2823 43.5283 39.2052C44.282 39.1011 44.9498 38.7094 45.409 38.1029C45.8681 37.4964 46.0636 36.7471 45.9591 35.9916L45.5094 32.7738L47.7145 30.4479C48.1505 30.0267 48.4357 29.4889 48.5403 28.8894C48.8104 27.341 47.7707 25.8614 46.2259 25.5917ZM45.6702 28.4594L42.9675 31.3101C42.669 31.6249 42.5301 32.0586 42.5901 32.4883L43.1383 36.3831L39.5144 34.6568C39.1226 34.4703 38.6674 34.472 38.2771 34.6621L34.7431 36.3847C34.75 36.3509 34.7557 36.3168 34.7602 36.2828L35.2689 32.4043C35.3253 31.974 35.1828 31.5416 34.8816 31.2294L32.1473 28.4032C32.1634 28.4008 32.1795 28.398 32.1955 28.3951L36.0975 27.6699C36.5241 27.5905 36.8914 27.3214 37.0955 26.9385L38.9374 23.4714L40.8505 26.9907C41.0577 27.3718 41.4273 27.638 41.8546 27.7135L45.7321 28.3978C45.711 28.4176 45.6902 28.4381 45.6702 28.4594Z" fill="#210D36"/>
<path d="M38.9413 15.5542C39.7288 15.5542 40.3671 14.9157 40.3671 14.1284C40.3671 13.3411 39.7288 12.7026 38.9413 12.7026H38.9403C38.1529 12.7026 37.5151 13.3411 37.5151 14.1284C37.5151 14.9157 38.1539 15.5542 38.9413 15.5542Z" fill="#210D36"/>
</svg>
