<svg width="88" height="88" viewBox="0 0 88 88" fill="none" xmlns="http://www.w3.org/2000/svg">
<rect x="39.2261" y="40.7539" width="45.3627" height="45.3627" rx="5.94455" fill="#9CDFF9"/>
<path d="M50.1994 44.261C50.1994 43.0983 49.8884 42.0074 49.3478 41.0644L62.7684 27.6438C63.431 26.9812 63.431 25.9067 62.7684 25.2439C62.1058 24.5815 61.0313 24.5815 60.3686 25.2439L46.9479 38.6646C46.005 38.1239 44.9141 37.8129 43.7514 37.8129C42.5887 37.8129 41.4978 38.1239 40.5548 38.6646L33.8368 31.9465C33.1742 31.2841 32.0997 31.2841 31.4369 31.9465C30.7743 32.6091 30.7743 33.6836 31.4369 34.3464L38.155 41.0644C37.6143 42.0074 37.3033 43.0983 37.3033 44.261C37.3033 47.8164 40.1959 50.709 43.7514 50.709C47.3068 50.709 50.1994 47.8164 50.1994 44.261ZM40.697 44.261C40.697 42.5768 42.0672 41.2066 43.7514 41.2066C45.4355 41.2066 46.8057 42.5768 46.8057 44.261C46.8057 45.9451 45.4355 47.3153 43.7514 47.3153C42.0672 47.3153 40.697 45.9451 40.697 44.261Z" fill="#210D36"/>
<path d="M18.489 42.5327H16.0924C15.1552 42.5327 14.3955 43.2926 14.3955 44.2296C14.3955 45.1666 15.1552 45.9264 16.0924 45.9264H18.489C19.4262 45.9264 20.1859 45.1666 20.1859 44.2296C20.1859 43.2926 19.426 42.5327 18.489 42.5327Z" fill="#210D36"/>
<path d="M43.7828 20.6955C44.72 20.6955 45.4797 19.9356 45.4797 18.9986V16.6021C45.4797 15.6651 44.72 14.9053 43.7828 14.9053C42.8456 14.9053 42.0859 15.6651 42.0859 16.6021V18.9986C42.0859 19.9358 42.8456 20.6955 43.7828 20.6955Z" fill="#210D36"/>
<path d="M86.5323 59.0914L85.0024 57.9075C86.4544 53.5176 87.1906 48.9316 87.1906 44.2604C87.1906 32.6572 82.6721 21.7487 74.4674 13.5438C66.2628 5.33936 55.3542 0.820801 43.7511 0.820801C34.6598 0.820801 25.9536 3.59975 18.5736 8.85729C17.8104 9.40096 17.6324 10.4605 18.1762 11.2237C18.7201 11.9873 19.7796 12.165 20.5428 11.6213C27.3445 6.77575 35.3698 4.21452 43.7511 4.21452C65.8325 4.21452 83.7969 22.179 83.7969 44.2604C83.7969 48.1621 83.2387 51.9975 82.1398 55.6921L78.4309 52.822C79.117 50.0334 79.4688 47.1576 79.4688 44.2602C79.4688 24.5654 63.4458 8.54235 43.7509 8.54235C24.056 8.54235 8.03324 24.5656 8.03324 44.2604C8.03324 63.9551 24.0563 79.9782 43.7511 79.9782C45.0156 79.9782 46.2836 79.9098 47.5398 79.7775V84.1287C46.2836 84.2463 45.0144 84.3062 43.7511 84.3062C21.6697 84.3062 3.70524 66.3417 3.70524 44.2604C3.70524 35.8224 6.29821 27.753 11.2037 20.924C11.7504 20.1629 11.5766 19.1027 10.8154 18.5558C10.0542 18.009 8.99401 18.1829 8.44728 18.9441C3.12491 26.3536 0.311523 35.1078 0.311523 44.2604C0.311523 55.8635 4.83009 66.7721 13.0347 74.9769C21.2394 83.1814 32.148 87.6999 43.7511 87.6999C45.29 87.6999 46.8372 87.6173 48.364 87.4563C48.6192 87.61 48.9172 87.6999 49.2367 87.6999H80.0722C81.0093 87.6999 81.769 86.9401 81.769 86.0031V79.2156C81.769 78.2786 81.0093 77.5188 80.0722 77.5188C79.135 77.5188 78.3753 78.2786 78.3753 79.2156V84.3062H71.7813V71.0707C71.7813 70.1337 71.0216 69.3739 70.0844 69.3739H59.2246C58.2874 69.3739 57.5277 70.1337 57.5277 71.0707V84.3062H50.9335V65.7801L64.6224 55.1871L80.5172 67.4871C80.8164 67.7187 81.1822 67.8421 81.5557 67.8421C81.6424 67.8421 81.7296 67.8355 81.8165 67.8219C82.2772 67.7503 82.688 67.4924 82.9527 67.1084L86.8908 61.3964C87.4022 60.6547 87.2448 59.6427 86.5323 59.0914ZM60.9214 72.7676H68.3876V84.3062H60.9214V72.7676ZM43.7511 76.5845C25.9275 76.5845 11.427 62.084 11.427 44.2604C11.427 26.4367 25.9275 11.9362 43.7511 11.9362C61.5747 11.9362 76.0752 26.4367 76.0752 44.2604C76.0752 46.3733 75.8706 48.4733 75.4672 50.5286L65.6611 42.94C65.0495 42.4668 64.1955 42.4668 63.5841 42.94L42.7128 59.0914C42.0003 59.6427 41.843 60.6547 42.3542 61.3964L46.2923 67.1084C46.557 67.4924 46.9678 67.7503 47.4285 67.8219C47.4657 67.8277 47.5028 67.8302 47.5402 67.8335V76.3646C46.286 76.5107 45.0166 76.5845 43.7511 76.5845ZM81.1765 63.706L65.6609 51.6996C65.3551 51.4628 64.9888 51.3446 64.6224 51.3446C64.2561 51.3446 63.8897 51.4628 63.584 51.6996L48.0684 63.706L46.0597 60.7923L64.6224 46.4276L83.1852 60.7923L81.1765 63.706Z" fill="#210D36"/>
<path d="M80.0723 70.7319C79.6261 70.7319 79.1883 70.9133 78.8727 71.2291C78.5571 71.5447 78.3755 71.9825 78.3755 72.4288C78.3755 72.8751 78.5571 73.3129 78.8727 73.6283C79.1883 73.9439 79.6261 74.1257 80.0723 74.1257C80.5186 74.1257 80.9564 73.9441 81.272 73.6283C81.5876 73.3129 81.7692 72.8751 81.7692 72.4288C81.7692 71.9825 81.5876 71.5447 81.272 71.2291C80.9564 70.9135 80.5186 70.7319 80.0723 70.7319Z" fill="#210D36"/>
<path d="M14.2345 16.4406C14.6807 16.4406 15.1185 16.259 15.4341 15.9434C15.7498 15.6278 15.9313 15.19 15.9313 14.7437C15.9313 14.2975 15.7498 13.8597 15.4341 13.5441C15.1185 13.2286 14.6824 13.0469 14.2345 13.0469C13.7882 13.0469 13.3504 13.2284 13.0348 13.5441C12.7192 13.8597 12.5376 14.2975 12.5376 14.7437C12.5376 15.19 12.7192 15.6278 13.0348 15.9434C13.3504 16.259 13.7882 16.4406 14.2345 16.4406Z" fill="#210D36"/>
</svg>
