<svg width="84" height="84" viewBox="0 0 84 84" fill="none" xmlns="http://www.w3.org/2000/svg">
<rect x="24.6582" y="2.8197" width="45.3627" height="45.3627" rx="4.68951" fill="#FF788E"/>
<path d="M79.3507 41.5363L75.5887 41.0651C74.445 38.2669 72.8018 35.6786 70.7596 33.4391L73.5256 21.7212C73.6393 21.2395 73.5266 20.7325 73.2195 20.3444C72.9124 19.9564 72.4449 19.73 71.9501 19.7297L71.5962 19.7295C71.5941 19.7295 71.5927 19.7295 71.5906 19.7295C66.999 19.7295 62.861 22.6184 61.2334 26.8557C60.0822 26.3982 58.8988 26.0214 57.6919 25.7358C56.8215 25.53 55.949 26.0685 55.7432 26.9391C55.5373 27.8096 56.076 28.6821 56.9465 28.8879C61.069 29.863 64.7464 31.9477 67.6451 34.8406C67.751 34.9958 67.883 35.1331 68.0381 35.2442C70.1511 37.462 71.8214 40.1229 72.9048 43.1048C73.1123 43.6761 73.6226 44.0833 74.2257 44.1588L78.9486 44.75C79.6869 44.8425 80.2435 45.4733 80.2435 46.2173V54.3825C80.2435 55.1265 79.6867 55.7573 78.9486 55.8498L74.5721 56.3977C73.9426 56.4764 73.4171 56.9155 73.2276 57.521C71.9292 61.6694 69.4623 65.3378 66.0932 68.1292C65.7219 68.4369 65.507 68.8941 65.507 69.3763V78.328C65.507 79.1315 64.8533 79.7851 64.0501 79.7851H54.6557C53.8522 79.7851 53.1986 79.1315 53.1986 78.328V74.9163C53.1986 74.0219 52.4734 73.2968 51.579 73.2968H37.9728C37.0785 73.2968 36.3532 74.0219 36.3532 74.9163V78.328C36.3532 79.1315 35.6996 79.7851 34.8961 79.7851H25.5016C24.6983 79.7851 24.0447 79.1315 24.0447 78.328V72.0072C24.0447 71.4133 23.7196 70.8672 23.1978 70.5839C15.9291 66.6375 11.4133 59.0531 11.4133 50.7906C11.4133 38.3804 21.5096 28.2842 33.9197 28.2842H35.9492C36.8435 28.2842 37.5687 27.5591 37.5687 26.6646C37.5687 25.7702 36.8435 25.0451 35.9492 25.0451H33.9197C21.8977 25.0451 11.7748 33.3285 8.95602 44.4875H7.76939C5.58141 44.4875 3.80155 42.7075 3.80155 40.5197C3.80155 38.3319 5.58141 36.5518 7.76939 36.5518C8.6637 36.5518 9.38892 35.8268 9.38892 34.9323C9.38892 34.0379 8.6637 33.3128 7.76939 33.3128C3.79556 33.3128 0.5625 36.5457 0.5625 40.5197C0.5625 44.4937 3.79556 47.7266 7.76939 47.7266H8.35744C8.2376 48.7317 8.17427 49.7537 8.17427 50.7906C8.17427 59.9164 12.9898 68.319 20.8054 72.9501V78.3282C20.8054 80.9176 22.9121 83.0243 25.5014 83.0243H34.8958C37.4853 83.0243 39.592 80.9176 39.592 78.3282V76.536H49.9592V78.3282C49.9592 80.9176 52.0659 83.0243 54.6553 83.0243H64.0497C66.639 83.0243 68.7457 80.9176 68.7457 78.3282V70.123C72.034 67.231 74.5154 63.583 75.984 59.4853L79.3505 59.0638C81.706 58.769 83.4823 56.7564 83.4823 54.3825V46.2173C83.4823 43.8436 81.7061 41.831 79.3507 41.5363ZM68.0398 30.862C66.8316 29.8737 65.5376 28.9982 64.1765 28.2464C65.0713 25.6754 67.2538 23.7624 69.8565 23.1652L68.0398 30.862Z" fill="#210D36"/>
<path d="M65.0319 41.2294C64.7309 40.9282 64.313 40.7549 63.8871 40.7549C63.4612 40.7549 63.0433 40.9282 62.7421 41.2294C62.4409 41.5306 62.2676 41.9485 62.2676 42.3744C62.2676 42.8003 62.4407 43.2182 62.7421 43.5194C63.0435 43.8206 63.4612 43.9939 63.8871 43.9939C64.313 43.9939 64.7309 43.8206 65.0319 43.5194C65.3332 43.2182 65.5066 42.8003 65.5066 42.3744C65.5066 41.9485 65.3332 41.5306 65.0319 41.2294Z" fill="#210D36"/>
<path d="M48.0541 9.55273C47.1598 9.55273 46.4346 10.2778 46.4346 11.1723V17.5961C46.4346 18.4906 47.1598 19.2156 48.0541 19.2156C48.9484 19.2156 49.6736 18.4906 49.6736 17.5961V11.1723C49.6736 10.278 48.9486 9.55273 48.0541 9.55273Z" fill="#210D36"/>
<path d="M34.8963 0.104004C34.002 0.104004 33.2768 0.829066 33.2768 1.72353V4.47673C33.2768 5.37119 34.002 6.09625 34.8963 6.09625C35.7906 6.09625 36.5158 5.37119 36.5158 4.47673V1.72353C36.5158 0.829066 35.7908 0.104004 34.8963 0.104004Z" fill="#210D36"/>
<path d="M26.1841 63.5335C23.3689 61.8202 21.1713 59.188 19.9965 56.1217C19.6763 55.2862 18.7398 54.8685 17.9047 55.1889C17.0696 55.5089 16.6519 56.4453 16.9719 57.2806C18.4019 61.0132 21.0756 64.2164 24.5004 66.3004C24.7634 66.4605 25.0538 66.5367 25.3406 66.5367C25.8872 66.5367 26.4209 66.26 26.7258 65.7589C27.1908 64.9948 26.948 63.9984 26.1841 63.5335Z" fill="#210D36"/>
<path d="M34.8958 7.88672C31.1451 7.88672 28.0938 10.9381 28.0938 14.6887C28.0938 18.4394 31.1451 21.4907 34.8958 21.4907C38.6464 21.4907 41.6978 18.4394 41.6978 14.6887C41.6978 10.9381 38.6464 7.88672 34.8958 7.88672ZM34.8958 18.2517C32.9311 18.2517 31.3328 16.6534 31.3328 14.6887C31.3328 12.7241 32.9311 11.1258 34.8958 11.1258C36.8604 11.1258 38.4587 12.7241 38.4587 14.6887C38.4587 16.6534 36.8604 18.2517 34.8958 18.2517Z" fill="#210D36"/>
<path d="M55.3033 34.4377H53.8457C54.486 33.4007 54.8566 32.1804 54.8566 30.8748C54.8566 27.1241 51.8052 24.0728 48.0546 24.0728C44.3039 24.0728 41.2526 27.1241 41.2526 30.8748C41.2524 32.1804 41.623 33.4007 42.2633 34.4377H34.2494C33.3551 34.4377 32.6299 35.1628 32.6299 36.0573C32.6299 36.9517 33.3551 37.6768 34.2494 37.6768H55.3033C56.1976 37.6768 56.9228 36.9517 56.9228 36.0573C56.9228 35.1628 56.1977 34.4377 55.3033 34.4377ZM48.0546 34.4377C46.0899 34.4377 44.4916 32.8394 44.4916 30.8748C44.4916 28.9101 46.0899 27.3118 48.0546 27.3118C50.0192 27.3118 51.6175 28.9101 51.6175 30.8748C51.6175 32.8394 50.0191 34.4377 48.0546 34.4377Z" fill="#210D36"/>
</svg>
