<svg width="95" height="72" viewBox="0 0 95 72" fill="none" xmlns="http://www.w3.org/2000/svg">
<rect x="0.996193" y="0.477661" width="45.3627" height="45.3627" rx="4.52496" fill="#70EDC9"/>
<path d="M90.6483 10.492H86.2633V6.84811C86.2633 3.95925 83.913 1.60901 81.0243 1.60901H76.8451C73.9563 1.60901 71.6062 3.95925 71.6062 6.84811V21.8484H64.6029V17.8211C64.6029 14.8983 62.2251 12.5207 59.3025 12.5207C58.1541 12.5207 57.0911 12.8891 56.2226 13.5122C55.3687 11.7278 53.5454 10.492 51.4386 10.492C49.4469 10.492 47.7086 11.5962 46.8032 13.2247C45.9085 12.5348 44.7893 12.1222 43.5744 12.1222C41.7309 12.1222 40.1057 13.0694 39.156 14.5017C38.2286 13.7062 37.0251 13.2241 35.7105 13.2241C32.7877 13.2241 30.4101 15.6017 30.4101 18.5245V21.8487H23.8682V17.9857C23.8682 17.2298 23.2555 16.6173 22.4998 16.6173C21.7441 16.6173 21.1314 17.2298 21.1314 17.9857V49.7758C21.1314 51.1555 20.0089 52.2778 18.6293 52.2778H14.4496C13.0698 52.2778 11.9475 51.1555 11.9475 49.7758V6.84811C11.9475 5.46836 13.07 4.34588 14.4496 4.34588H18.6288C20.0085 4.34588 21.1308 5.46836 21.1308 6.84811V12.1536C21.1308 12.9096 21.7435 13.5221 22.4993 13.5221C23.255 13.5221 23.8677 12.9096 23.8677 12.1536V6.84811C23.8677 3.95925 21.5174 1.60901 18.6288 1.60901H14.4496C11.5607 1.60901 9.21064 3.95925 9.21064 6.84811V10.492H4.82562C2.71404 10.492 0.996193 12.2098 0.996193 14.3212V42.3023C0.996193 44.4139 2.71404 46.1317 4.82562 46.1317H9.21064V49.7756C9.21064 52.6643 11.5609 55.0145 14.4496 55.0145H18.6288C21.5176 55.0145 23.8677 52.6643 23.8677 49.7756V34.7753H28.5572V37.2741C28.5572 38.5582 29.0064 39.8117 29.8224 40.8038L34.0722 45.9706V70.6037C34.0722 71.3597 34.6849 71.9722 35.4406 71.9722C36.1964 71.9722 36.8091 71.3597 36.8091 70.6037V45.4802C36.8091 45.163 36.6989 44.8558 36.4974 44.6107L31.936 39.0649C31.522 38.5617 31.2939 37.9257 31.2939 37.2741V34.7753L57.1734 34.9335C57.9292 34.9335 58.5419 34.321 58.5419 33.5651C58.5419 32.8092 57.9292 32.1967 57.1734 32.1967H50.947C49.6625 32.1967 48.6174 31.1515 48.6174 29.8672C48.6174 28.5827 49.6625 27.5376 50.947 27.5376H62.7132C63.5217 27.5376 64.1794 28.1952 64.1794 29.0036V37.2739C64.1794 37.9255 63.9514 38.5617 63.5374 39.0647L58.9759 44.6106C58.7745 44.8556 58.6643 45.1627 58.6643 45.48V49.0892C58.6643 49.8451 59.277 50.4576 60.0327 50.4576C60.7885 50.4576 61.4012 49.8451 61.4012 49.0892V45.9704L65.651 40.8036C66.4667 39.8115 66.9161 38.5581 66.9161 37.2739V34.7752H71.6057V49.7754C71.6057 52.6641 73.9559 55.0143 76.8446 55.0143H81.0238C83.9127 55.0143 86.2627 52.6641 86.2627 49.7754V46.1315H90.6477C92.7593 46.1315 94.4772 44.4137 94.4772 42.3021V14.3212C94.4777 12.2098 92.7599 10.492 90.6483 10.492ZM4.82562 43.3948C4.22315 43.3948 3.73307 42.9046 3.73307 42.3023V14.3212C3.73307 13.7188 4.22315 13.2289 4.82562 13.2289H9.21064V43.3948H4.82562ZM59.3023 15.2576C60.716 15.2576 61.8659 16.4076 61.8659 17.8211V22.9159C61.8659 23.6385 61.5593 24.3183 61.0348 24.8009H57.5697C57.0451 24.3183 56.7386 23.6385 56.7386 22.9159V17.8211C56.7386 16.4076 57.8887 15.2576 59.3023 15.2576ZM48.8747 15.7924C48.8747 14.3789 50.0247 13.2289 51.4382 13.2289C52.8517 13.2289 54.0017 14.3789 54.0017 15.7924V22.9159C54.0017 23.6385 53.6952 24.3183 53.1707 24.8009H50.9472C50.5695 24.8009 50.2017 24.8438 49.8474 24.9226C49.2381 24.4416 48.8745 23.7096 48.8745 22.9159V15.7924H48.8747ZM41.0105 17.4225C41.0105 16.009 42.1606 14.8589 43.5741 14.8589C44.9876 14.8589 46.1378 16.009 46.1378 17.4225V22.9157C46.1378 24.3294 44.9878 25.4795 43.5741 25.4795C42.1604 25.4795 41.0105 24.3294 41.0105 22.9157V17.4225ZM33.1464 18.5243C33.1464 17.1108 34.2964 15.9608 35.71 15.9608C37.1235 15.9608 38.2735 17.1108 38.2735 18.5243V22.9159C38.2735 24.3296 37.1235 25.4796 35.71 25.4796C34.2964 25.4796 33.1464 24.3296 33.1464 22.9159V18.5243ZM23.8679 24.5852H30.6805C31.3817 26.6923 33.3707 28.2163 35.7101 28.2163C37.2687 28.2163 38.6722 27.5398 39.6428 26.4655C40.6135 27.5396 42.0159 28.2163 43.5743 28.2163C44.7031 28.2163 45.7481 27.8582 46.6085 27.2542C46.1471 28.0176 45.8811 28.9119 45.8811 29.8672C45.8811 30.6438 46.0572 31.38 46.3708 32.0383H23.8679V24.5852ZM66.9167 32.0385V29.0038C66.9167 27.1909 65.7628 25.6426 64.151 25.0542C64.2185 24.9011 64.2785 24.7445 64.3314 24.5852H71.6062V32.0385H66.9167ZM91.7408 42.3023C91.7408 42.9048 91.2508 43.3948 90.6483 43.3948H86.2633V39.4402C86.2633 38.6843 85.6506 38.0718 84.8948 38.0718C84.1391 38.0718 83.5264 38.6843 83.5264 39.4402V49.7756C83.5264 51.1553 82.4039 52.2776 81.0243 52.2776H76.8451C75.4654 52.2776 74.3431 51.1553 74.3431 49.7756V6.84811C74.3431 5.46836 75.4656 4.34588 76.8451 4.34588H81.0243C82.4041 4.34588 83.5264 5.46836 83.5264 6.84811V33.6083C83.5264 34.3643 84.1391 34.9768 84.8948 34.9768C85.6506 34.9768 86.2633 34.3643 86.2633 33.6083V13.2289H90.6483C91.2508 13.2289 91.7408 13.7189 91.7408 14.3212V42.3023Z" fill="#210D36"/>
<path d="M60.033 53.5521C59.2773 53.5521 58.6646 54.1646 58.6646 54.9206V70.603C58.6646 71.3589 59.2773 71.9715 60.033 71.9715C60.7888 71.9715 61.4015 71.3589 61.4015 70.603V54.9206C61.4015 54.1646 60.789 53.5521 60.033 53.5521Z" fill="#210D36"/>
</svg>
